<svg width="15" height="14" viewBox="0 0 15 14" fill="none" xmlns="http://www.w3.org/2000/svg">
<path d="M14.3708 6.32113L1.62084 0.321131C1.49245 0.260719 1.34956 0.237966 1.20876 0.255514C1.06795 0.273063 0.935018 0.330193 0.825386 0.42027C0.715755 0.510347 0.633924 0.629676 0.589397 0.764399C0.544871 0.899123 0.539475 1.04371 0.573836 1.18138L1.48284 4.81813L7.30134 6.99988L1.48284 9.18163L0.573836 12.8184C0.538828 12.9562 0.543774 13.101 0.588095 13.2361C0.632415 13.3712 0.714279 13.4908 0.824108 13.581C0.933938 13.6713 1.06719 13.7284 1.20829 13.7457C1.34938 13.7629 1.49247 13.7397 1.62084 13.6786L14.3708 7.67863C14.4997 7.61806 14.6086 7.52207 14.6849 7.40188C14.7613 7.28169 14.8018 7.14225 14.8018 6.99988C14.8018 6.85751 14.7613 6.71808 14.6849 6.59788C14.6086 6.47769 14.4997 6.3817 14.3708 6.32113Z" fill="#4691F2"/>
</svg>
