<svg width="40" height="41" viewBox="0 0 40 41" fill="none" xmlns="http://www.w3.org/2000/svg">
<path d="M18.3503 4.0415V23.7915C18.3503 29.2392 17.2146 30.3748 11.7669 30.3748H5.18359M8.47526 20.4998H18.3503M29.0482 27.0832H30.694M29.0482 32.0207H30.694" stroke="white" stroke-width="1.5" stroke-linecap="round" stroke-linejoin="round"/>
<path d="M23.2895 36.9582V8.979C23.2895 6.65015 23.2895 5.48655 22.5966 4.76567C21.9054 4.0415 20.7895 4.0415 18.561 4.0415H17.5028C15.8997 4.0415 15.0965 4.0415 14.4843 4.48752C13.8737 4.93684 13.6005 5.72519 13.0557 7.30025L4.32621 32.549C3.63167 34.5553 3.2844 35.5576 3.75511 36.2587C4.22582 36.9582 5.24788 36.9582 7.29036 36.9582H23.2895ZM23.2895 36.9582H33.1645C34.7165 36.9582 35.4917 36.9582 35.9739 36.4759C36.4562 35.9937 36.4562 35.2185 36.4562 33.6665V28.5809C36.4562 25.0835 36.4562 23.334 35.4966 22.0288C34.5371 20.7237 32.8683 20.2019 29.5272 19.1568L23.2895 17.2082" stroke="white" stroke-width="1.5" stroke-linecap="round" stroke-linejoin="round"/>
</svg>
