<svg width="25" height="24" viewBox="0 0 25 24" fill="none" xmlns="http://www.w3.org/2000/svg">
<path d="M13.6008 17.275C13.4008 17.075 13.3048 16.8334 13.3128 16.55C13.3208 16.2667 13.4251 16.025 13.6258 15.825L16.4508 13H5.30078C5.01745 13 4.77978 12.904 4.58778 12.712C4.39578 12.52 4.30012 12.2827 4.30078 12C4.30078 11.7167 4.39678 11.479 4.58878 11.287C4.78078 11.095 5.01812 10.9994 5.30078 11H16.4508L13.6008 8.15005C13.4008 7.95005 13.3008 7.71238 13.3008 7.43705C13.3008 7.16172 13.4008 6.92438 13.6008 6.72505C13.8008 6.52505 14.0385 6.42505 14.3138 6.42505C14.5891 6.42505 14.8265 6.52505 15.0258 6.72505L19.6008 11.3C19.7008 11.4 19.7718 11.5084 19.8138 11.625C19.8558 11.7417 19.8765 11.8667 19.8758 12C19.8758 12.1334 19.8548 12.2584 19.8128 12.375C19.7708 12.4917 19.7001 12.6 19.6008 12.7L15.0008 17.3C14.8175 17.4834 14.5885 17.575 14.3138 17.575C14.0391 17.575 13.8015 17.475 13.6008 17.275Z" fill="white"/>
</svg>
